# xmcd
#
# Track frame offsets: 
#        150
#        18764
#        38698
#        56187
#        73435
#        96752
#        112661
#        126242
#        139558
#        155280
#        171837
#        189969
#        206261
#
# Disc length: 3290 seconds
#
# Revision: 0
# Processed by: cddbd v1.5.2PL0 Copyright (c) Steve Scherf et al.
# Submitted via: ExactAudioCopy v1.0b3
#
DISCID=a70cd80d
DTITLE=Яхонт - Чистым полем
DYEAR=2012
DGENRE=Chanson
TTITLE0=Привет, моя мечта
TTITLE1=Чистым полем
TTITLE2=Скажи
TTITLE3=Скрипач
TTITLE4=Вот такая любовь
TTITLE5=Ковыль
TTITLE6=Летела пуля
TTITLE7=Про УАЗик
TTITLE8=Разговор у двери
TTITLE9=Забей
TTITLE10=Оставайся
TTITLE11=Кабы знать
TTITLE12=Татарская
EXTD=
EXTT0=
EXTT1=
EXTT2=
EXTT3=
EXTT4=
EXTT5=
EXTT6=
EXTT7=
EXTT8=
EXTT9=
EXTT10=
EXTT11=
EXTT12=
PLAYORDER=
